# xmcd
# Copyright (C) 1995-1998 Ti Kan
#
# Track frame offsets:
#       150
#       14647
#       31555
#
# Disc length: 621 seconds
#
# Revision: 0
# Processed by: cddbd v1.4PL0 Copyright (c) Steve Scherf et al.
# Submitted via: CD-Transfer v1.0
#
DISCID=17026b03
DTITLE=Dänu Wisler and Dave Band - 
DYEAR=2003
DGENRE=
TTITLE0=Summer I Dr Schwyz
TTITLE1=Bahnhofbuffet
TTITLE2=Wen Ig Heichume
EXTD=
EXTT0=
EXTT1=
EXTT2=
PLAYORDER=
